<?xml version="1.0" encoding="UTF-8"?> <svg xmlns="http://www.w3.org/2000/svg" class="icon icon--default icon--logo" viewBox="0 0 100 100"><g transform="translate(-5.4 -5.7)"><circle cx="50" cy="50" r="50" fill="#ff000f" transform="translate(5.4 5.7)"></circle><path d="M96.33 47.36c-.5-2.25-4.7-3.23-6.94-3.52a45.3 45.3 0 0 0-7.82-.2L66.6 18.14a50.84 50.84 0 0 0-21.8 5.18 44.24 44.24 0 0 0-11.53 8.7 10.56 10.56 0 0 1-6.65 2.73c-2.15.2-5.86.79-8.3 3.33a5.95 5.95 0 0 0-1.57 4.69c-.69 1.56-.69 2.93-.1 3.62.88.97 2.25 1.66 4.79 2.44l-.4-4.8S19.3 43.17 19 42c-.2-.79.59-2.25 1.96-3.03a15.36 15.36 0 0 1 4.98-1.27l-4.4 24.73 3.53-.68 3.03.88 3.81-5.77 7.14 5.18.49 13.78 3.71-.68 3.52.88 5.38-11.45h3.61l4.3 4.3h10.85l1.86-1.75 10.66 8.99 3.52-.78 4.59.58-9.48-18.08 4.69-4.79s-1.08-1.86-1.47-2.64c4.89-.39 6.45.59 6.94 1.37a2.98 2.98 0 0 1-.2 2.83s2.15-2.05 2.84-2.93c.59-.97 1.96-2.34 1.47-4.3zM58.6 50.5c-.79.49-3.23-.2-3.91-.3-.79-.1-4.99-.58-6.46 0-1.36.5-2.34 1.08-2.34 2.16a3.24 3.24 0 0 0 .49 1.75 35.7 35.7 0 0 1-3.23-3.61c-.39-.78-1.07-2.15-.88-2.84.2-.78.5-2.05 3.52-3.13a26.33 26.33 0 0 1 7.92-1.07c.78 0 4.7.1 5.08.49.4.3.69 2.34.78 3.32-.1.98-.2 2.74-.97 3.23z"></path><path fill="#fff" d="M28.78 92.91h3.72V89.3h1.76c2.73 0 4.69-1.37 4.69-4.3a4.07 4.07 0 0 0-4.4-4.11h-5.77zm3.72-8.9h1.17c.88 0 1.76.1 1.76 1.17 0 1.18-.98 1.28-1.96 1.28h-.97zm6.94 8.9h3.71v-4.2h1.96c1.46 0 1.56 1.18 1.66 2.35a12.22 12.22 0 0 0 .3 1.86h3.7a7.66 7.66 0 0 1-.39-2.55 3.36 3.36 0 0 0-1.76-3.03 3.02 3.02 0 0 0 1.76-3.03c0-2.24-1.85-3.42-3.9-3.42h-7.04v12.02zm3.71-9.19h1.76c1.37 0 1.86.4 1.86 1.18 0 1.07-.98 1.17-1.67 1.17h-1.95zm8.41-2.83h9.97v3.13h-6.26v1.46h5.67v2.84h-5.67v1.56h6.45v3.03H51.56zm11.14 0h9.68l-.1 3.13h-5.86v1.46h4.3v2.84h-4.3v4.6H62.7zm7.04 12.02h3.71l.59-1.76h3.81l.49 1.76h3.81l-4.4-12.02h-3.61zm5.08-4.3L76 84.9l1.08 3.71z"></path></g></svg> 