<?xml version="1.0" encoding="UTF-8"?> <svg xmlns="http://www.w3.org/2000/svg" data-name="Ebene 1" viewBox="0 0 201.26 31.13"><path fill="#fff" d="M6.5 24.62h5.07V12.99a1.61 1.61 0 0 1 1.54-1.42h5.44l-6 7.98v5.07h12.07v-5.07h-5.8l5.8-7.98V6.5H14.59a3.47 3.47 0 0 0-2.97 1.98l-.05.1V6.5H6.5Z"></path><path fill="none" stroke="#fff" stroke-miterlimit="3.86" stroke-width=".02" d="M6.5 24.62h5.07V12.99a1.61 1.61 0 0 1 1.54-1.42h5.44l-6 7.98v5.07h12.07v-5.07h-5.8l5.8-7.98V6.5H14.59a3.47 3.47 0 0 0-2.97 1.98l-.05.1V6.5H6.5Z"></path><path fill="#fff" fill-rule="evenodd" d="M0 0h31.13v31.13H0Zm3.26 3.26h24.6v24.6H3.26Zm40.27 6.73h.46c1.57 0 3.34.3 3.34 2.3 0 2.02-1.77 2.31-3.34 2.31h-.46V10m4.76 7.24A4.98 4.98 0 0 0 52.34 12c0-3.95-2.78-5.7-6.43-5.7h-7.2v18.51h4.82V17.7h.05l4.54 7.11h5.99Z"></path><path fill="#fff" d="M61.78 13.45V6.31h-4.8v18.5h4.8v-7.58h6.95v7.58h4.81V6.31h-4.81v7.14h-6.95m27-3.07V6.31H78.25v18.5h10.53v-4.07h-5.72v-3.19h5.43v-4.08h-5.43v-3.09h5.72m4.54-4.07h4.81v18.51h-4.81zm9.53 18.5h4.81V13.47h.05l8.81 11.34h4.81V6.31h-4.81v11.31h-.05l-8.81-11.31h-4.81v18.5m30-4.07 8.71-14.43h-15.32v4.07h7.27l-8.76 14.43h15.85v-4.07h-7.75m12.12-14.43h4.81v18.51h-4.81zm9.53 18.5h4.81V13.47h.05l8.81 11.34h4.81V6.31h-4.81v11.31h-.05l-8.81-11.31h-4.81v18.5m28.05-10.87h-.05V6.31h-4.81v18.5h4.81v-8.02h.05l6.21 8.02H195l-8.03-9.74 7.36-8.76h-5.96l-5.82 7.63"></path><path fill="#fff" fill-rule="evenodd" d="M198 7.47v-.75h.77c.32 0 .72.06.72.36 0 .46-.64.4-1 .4h-.5m.98.4c.52-.01.93-.22.93-.8 0-.63-.52-.77-1.04-.77h-1.28v2.92h.41V7.88h.5l.87 1.35h.5Zm-.39 2.17a2.26 2.26 0 1 1 2.27-2.26 2.28 2.28 0 0 1-2.27 2.25Zm0 .4a2.67 2.67 0 1 0-2.68-2.66 2.66 2.66 0 0 0 2.68 2.67Z"></path></svg> 