<?xml version="1.0" encoding="UTF-8"?> <svg xmlns="http://www.w3.org/2000/svg" xml:space="preserve" viewBox="0 0 1033.99 427.09"><path fill="#e60014" d="M597.7 422.1c-35.79 0-57.25-23.62-57.25-58.08 0-34.5 21.46-58.1 57.25-58.1 35.85 0 57.2 23.6 57.2 58.1 0 34.46-21.35 58.07-57.2 58.07m0-21.87c20.12 0 23.42-18.75 23.42-36.2 0-17.44-3.3-36.25-23.42-36.25-20.05 0-23.36 18.8-23.36 36.25s3.3 36.2 23.36 36.2m88.88-91.03v-21.6l32.7-11.82v33.42H744v21.85h-24.71v50.87c0 14.42 2.23 18.3 13.58 18.3 3.52 0 7-.4 10.5-.62v19.21c-3.72 1.8-21.27 3.3-25.77 3.3-25.59 0-31.02-13.34-31.02-37.15v-53.91h-22.1v-21.85h22.1zM815.96 422.1c-35.73 0-57.08-23.62-57.08-58.08 0-34.5 21.35-58.1 57.08-58.1 35.93 0 57.23 23.6 57.23 58.1 0 34.46-21.3 58.07-57.23 58.07m0-21.87c20.22 0 23.42-18.75 23.42-36.2 0-17.44-3.2-36.25-23.42-36.25-19.97 0-23.28 18.8-23.28 36.25s3.3 36.2 23.28 36.2m-282.81 18.32-43.09-69.87c19.1-9.42 29.7-25.76 29.7-43 0-30.6-27.63-45.27-54.72-45.48h-67.36v158.38h34.14v-64.33h21.98l39.4 64.3h39.95zM431.71 286.51h28.43c14.82.25 23.61 6.15 23.61 20.19 0 14.05-8.79 21.47-23.6 21.73H431.7v-41.91z"></path><path fill="#e60014" d="M1028.99 418.46h-34.08L601.81 25.2 210.2 418.46H5L418.48 5.02 615.53 5z"></path></svg> 