<?xml version="1.0" encoding="UTF-8"?> <svg xmlns="http://www.w3.org/2000/svg" id="Layer_1" data-name="Layer 1" version="1.1" viewBox="0 0 150 28.048"><defs><style>.cls-1{fill:#000;stroke-width:0}</style></defs><path d="M148.133 9.902c-1.066 0-1.932.813-2.384 2.19l-.162-1.968h-2.324v9.224h2.656v-5.11c0-1.2.923-2.159 2.085-2.159.295 0 .609.056.867.148L149 10.05c-.369-.11-.627-.148-.867-.148m-28.226 0c-1.065 0-1.932.813-2.383 2.19l-.162-1.968h-2.325v9.224h2.657v-5.11c0-1.2.922-2.159 2.084-2.159.295 0 .61.056.867.148l.13-2.177c-.37-.11-.628-.148-.868-.148m-28.521 0c-1.066 0-1.932.813-2.383 2.19l-.162-1.968h-2.325v9.224h2.657v-5.11c0-1.2.922-2.159 2.084-2.159.295 0 .61.056.867.148l.13-2.177c-.37-.11-.628-.148-.868-.148m-20.477 0c-1.44 0-2.523.668-2.984 1.844l-.134-1.622h-2.287v9.224h2.656V13.74c0-.978.886-1.864 1.863-1.864.923 0 1.605.775 1.605 1.79v5.682h2.657v-6.106c0-1.993-1.365-3.34-3.376-3.34m-20.385.222h2.657v9.224h-2.657zm1.328-1.439c.812 0 1.457-.646 1.457-1.458s-.645-1.457-1.457-1.457-1.457.646-1.457 1.457.645 1.458 1.457 1.458m-5.128 1.439-1.181 4.483c-.24.914-.456 1.817-.677 2.836a42.363 42.363 0 0 0-.633-2.892l-1.18-4.427h-2.399l-1.18 4.483c-.24.914-.456 1.817-.677 2.836a42.363 42.363 0 0 0-.634-2.892l-1.18-4.427h-2.73l2.896 9.224h2.97l.922-3.247c.281-1.004.503-1.89.693-2.791.162.997.38 2.06.636 3.05l.775 2.988h3.007l3.173-9.224h-2.601Zm17.156 4.022c0-2.583-1.697-4.244-4.298-4.244-2.86 0-4.76 1.974-4.76 4.926 0 2.897 1.845 4.741 4.742 4.741 1.346 0 2.711-.387 3.763-1.07l-.535-1.605c-.738.48-1.716.757-2.638.757-1.532 0-2.457-.775-2.667-2.177h6.246a6.37 6.37 0 0 0 .147-1.328Zm-6.416-.35c.252-1.245.986-1.975 2.062-1.975 1.1 0 1.842.767 1.897 1.974h-3.959Zm27.429.35c0-2.583-1.697-4.244-4.299-4.244-2.86 0-4.76 1.974-4.76 4.926 0 2.897 1.846 4.741 4.742 4.741 1.347 0 2.712-.387 3.763-1.07l-.535-1.605c-.737.48-1.715.757-2.638.757-1.531 0-2.457-.775-2.666-2.177h6.245a6.37 6.37 0 0 0 .148-1.328Zm-6.416-.35c.251-1.245.986-1.975 2.062-1.975 1.1 0 1.841.767 1.897 1.974h-3.96ZM99.06 9.902c-1.218 0-2.285.581-2.988 1.571V5.807h-2.656v13.541h2.25l.098-1.186c.633.9 1.667 1.407 2.891 1.407 2.564 0 4.501-2.121 4.501-4.925 0-2.694-1.77-4.742-4.095-4.742Zm-.848 7.786c-1.31 0-2.232-1.089-2.232-2.675v-.332c0-1.624.96-2.805 2.288-2.805 1.31 0 2.176 1.144 2.176 2.86 0 1.771-.885 2.952-2.232 2.952Zm15.202-3.542c0-2.583-1.698-4.244-4.299-4.244-2.86 0-4.76 1.974-4.76 4.926 0 2.897 1.845 4.741 4.742 4.741 1.347 0 2.712-.387 3.763-1.07l-.535-1.605c-.738.48-1.715.757-2.638.757-1.531 0-2.457-.775-2.666-2.177h6.245a6.37 6.37 0 0 0 .148-1.328Zm-6.417-.35c.252-1.245.987-1.975 2.063-1.975 1.1 0 1.841.767 1.896 1.974h-3.959Zm21.71-3.672-.098 1.186c-.633-.9-1.666-1.408-2.89-1.408-2.565 0-4.502 2.122-4.502 4.926 0 2.694 1.771 4.741 4.096 4.741 1.219 0 2.286-.58 2.988-1.57v.943c0 1.882-1.07 2.952-3.007 2.952a7.21 7.21 0 0 1-3.228-.812l-.388 1.864a9.855 9.855 0 0 0 4.04.903c3.247 0 5.24-1.955 5.24-5.147v-8.578h-2.25Zm-.313 4.667c0 1.624-.96 2.804-2.288 2.804-1.31 0-2.177-1.143-2.177-2.86 0-1.77.886-2.95 2.232-2.95 1.31 0 2.233 1.088 2.233 2.674v.332Zm13.246-.645c0-2.583-1.698-4.244-4.3-4.244-2.859 0-4.759 1.974-4.759 4.926 0 2.897 1.845 4.741 4.741 4.741 1.347 0 2.712-.387 3.764-1.07l-.535-1.605c-.738.48-1.716.757-2.638.757-1.532 0-2.458-.775-2.667-2.177h6.246a6.37 6.37 0 0 0 .147-1.328Zm-6.417-.35c.252-1.245.986-1.975 2.062-1.975 1.1 0 1.842.767 1.897 1.974h-3.959ZM4.738 8.567h3.671l2.528 9.662 2.467-9.662h3.214l2.474 9.662 2.48-9.662h3.456l-4.286 12.482h-3.967l-1.973-8.128-2.281 8.128H8.646L4.738 8.567z" class="cls-1"></path><path d="M14.837.187C7.195.187 1 6.382 1 14.024s6.195 13.837 13.837 13.837 13.837-6.195 13.837-13.837S22.479.187 14.837.187m0 .693c1.775 0 3.496.347 5.116 1.033A13.081 13.081 0 0 1 24.13 4.73a13.081 13.081 0 0 1 2.817 4.178 13.051 13.051 0 0 1 1.033 5.116c0 1.775-.347 3.496-1.033 5.116a13.081 13.081 0 0 1-2.817 4.178 13.081 13.081 0 0 1-4.178 2.817 13.051 13.051 0 0 1-5.116 1.033c-1.775 0-3.496-.347-5.116-1.033a13.081 13.081 0 0 1-4.178-2.817 13.081 13.081 0 0 1-2.817-4.178 13.051 13.051 0 0 1-1.033-5.116c0-1.775.347-3.496 1.033-5.116A13.081 13.081 0 0 1 5.543 4.73a13.081 13.081 0 0 1 4.178-2.817A13.051 13.051 0 0 1 14.837.88" class="cls-1"></path></svg> 