<?xml version="1.0" encoding="UTF-8"?> <svg xmlns="http://www.w3.org/2000/svg" xml:space="preserve" fill-rule="evenodd" stroke-linejoin="round" stroke-miterlimit="2" clip-rule="evenodd" viewBox="0 0 818 203"><g fill-rule="nonzero"><path fill="#0071ce" d="M269.5 163.1c-.9-9-3.5-11.6-5.3-14-2.5-3.5-8-6.7-14-8-6.6-1.3-19.4-3.2-28-5-4.4-1-5.4-3.8-5.4-8.4 0-4.5 2.9-7 11.8-7 7.2 0 12.1 2.1 12.5 11.3h29c0-24.4-15.6-34.6-41.5-34.6-20.2 0-37.4 4.1-40.6 24.5-.8 4.9-.6 9.7 0 14.8a24 24 0 0 0 4.4 12.3c3.2 4.2 8.6 7.3 13.6 8.5 6.9 1.8 21.2 4.4 29.8 6.1 4.5 1.1 5.4 4.3 5.5 8.5 0 4.6-3 7-11.8 7-6.5 0-12.5-2-12.9-11.8h-29.5c0 25 14.3 35.1 42.4 35.1 18.9 0 37.8-7 40-24.5.6-4.9.5-9.7 0-14.8Zm90.2-34.8A33 33 0 0 0 331 98.5a68.2 68.2 0 0 0-25 0 33 33 0 0 0-28.8 29.8c-2 13.7-1.8 27.5-.3 41.1 2 18.4 12.4 29 30.1 32a67.6 67.6 0 0 0 23 0c17.7-3 28-13.6 30.1-32 1.6-13.6 1.7-27.4-.3-41.1Zm-28.4 35.6c0 7.2-3.7 13-12.9 13s-12.9-5.8-12.9-13v-28.7c0-7.1 4-13 13-13 8.8 0 12.8 5.9 12.8 13V164Zm86.1-65.3c-4.5-.4-28.2-.5-28.2-.5h-21.8v103.4h29v-32.8s14.3 0 21-.4c22-1 29.4-12.4 29.4-35 0-24.7-10.4-33-29.4-34.7Zm-10.1 45.8h-11v-21.9h11c6 0 10.1.6 10.1 11 0 10.9-4.1 10.9-10.1 10.9ZM503 98.6c-4.5-.4-28.2-.5-28.2-.5H453v103.4h29v-32.8h11c6 0 10.1.5 10.1 11v21.8h28.5c0-.2-.4-20.3-.4-29.9 0-14.2-15.4-13.4-15.4-15 0-1.8 16.7-2 16.7-23.2 0-24.8-10.4-33-29.4-34.8Zm0 34.8c0 11-4.1 11-10.2 11H482v-21.9h11c6 0 10.1.6 10.1 11Zm64.5 28.8h35.1v-25h-35.1v-12.9H606V98.1h-67.6v103.4H606V175h-38.6v-12.8Zm102.8-.5h-1.6l-9.5-63.6H613v103.4h28V133l1.4-.1 11.1 68.5h32l11-68.5 1.4.1v68.4h28V98h-46.2l-9.4 63.6ZM751.2 98l-20.9 103.5h27.3l3-14.6h26.7l3 14.6h27.2L796.7 98h-45.5Zm22.7 64.2h-8.3l7.6-38h1.5l7.6 38H774Z"></path><path fill="#7c868d" d="M94.3 41.5c-.4.7-1.5 1-3 1a87 87 0 0 1-27.5-7.7c-1.2-.7-1.3-1-1.4-1.5-.1-.8.5-1.5 1.1-2l6.4-6.5c.7-.7 1.7-1.7 4-1s5 1.6 7 1.1 2.9.2 3.6 1.8A37 37 0 0 0 93 39.2c1.2.8 1.5 1.7 1.2 2.3"></path><path fill="#7c868d" d="M137.8 75.8s-8.5 3.8-16.2 4.3c-2 .3-4.3 7-9.3 9-3 1-16.6.3-22.5-3.1-.6-.4-.6-.6-.5-.8.1-.3.5-.5 1.8 0a41.6 41.6 0 0 0 21 1c1.4-1.2 5-5 5-5.7-.2-.8-1.9-1.6-2.3-2-.5-.3-.4-.7-.1-.6 18.7-1 30-8 35-18.3A35 35 0 0 0 167.6 33c1-9-2-17.9-7.7-23.2-.5-.5-1.3-.7-2-.3-.5.3-.9.8-.8 1.7.6 4.4 1 8.3 1 11.8 0 7-1.9 12-5.4 14.5a25 25 0 0 0-2.2-7c-.2-12.8-6.5-23.7-17.8-28a26 26 0 0 0-12-1.8c-2.4.6-2 2.5-.8 3a21 21 0 0 1 4.5 2.4c4.5 3.4 7.5 7.8 8.7 12-1.9.2-11.3 3-15.1.1-3.7-3.3-4.5-3-7.7-.8-2.8 2-6.8 1.4-8.8 1-2-.3-3.8 0-4.4 1-.6.9 0 2.9 1.8 4.9a34 34 0 0 0 20.5 8.8c7.2.8 9.3 5.9-2.6 9.4a86.4 86.4 0 0 1-62.9-10.2c-3.2-2-6.2-.5-8.2 1.5A38.5 38.5 0 0 1 19.2 45c-1.9 0-3.2.3-5.7 5.6C6.1 66.3 1.1 95.6 0 106.2h24c19.6 10.6 38 2.7 41-.4-2.7-3.7-7.2-12-9.2-20a120 120 0 0 1 14 20.3c-8.3 11.2-27.2 10.2-33.8 8.6.3 6.7 3.4 20.4 5.6 28-14.2 22.8-13.5 43.8-13.5 58.7h31.5c0-14 7.1-32.5 12.8-37.5 9 6.8 14 21 14 37.5H121a37.3 37.3 0 0 0 3.7-16.2 68 68 0 0 0-.7-8.5s2.3-.8 7.5 1v23.8h29.1l.6-1.9a163 163 0 0 0 8.7-55.8c0-29.9-13.2-58.3-32-68ZM153 41.6c4.4-2.9 6.8-7.2 7.6-13.7.6-5.2-.3-11.3-.4-11.7-.1-.5.3-1.3 1.2-.3 2.5 3.4 4.1 9.8 3.5 16.9a32 32 0 0 1-14 22.7c.2-1.1 2.2-5.8 2.1-14Zm-43.3 17.8c11.7-3 27.3-12.3 28.8-28.2 1.3-13.4-4.7-22-12.5-26.7-.8-.5-.2-1.2.8-1 2.3.4 4.4 1.3 6.5 2.2 8.9 4.2 14.4 14 14.2 26.3-.5 25.3-22.9 35-32.7 38.1a6 6 0 0 1-7-3.4c-.9-1.9-1.3-6.6 1.9-7.3Zm-36 8.3a4.2 4.2 0 1 1 0-8.4 4.2 4.2 0 0 1 0 8.4Z"></path><path fill="#0071ce" d="M30 37.4a1.6 1.6 0 0 0 2.8 1.2A49.5 49.5 0 0 1 103 15.2a1.6 1.6 0 1 0 1.5-2.7A52.7 52.7 0 0 0 30 37.4"></path><path fill="#0071ce" d="M23.7 38.6a1.6 1.6 0 0 0 3 1 54.9 54.9 0 0 1 81.7-27.5 1.6 1.6 0 0 0 1.7-2.6 57.6 57.6 0 0 0-86.4 29"></path><path fill="#0071ce" d="M37.4 33.9a1.6 1.6 0 0 0 2.7 1.6 44.4 44.4 0 0 1 55.3-18.1 1.6 1.6 0 1 0 1.2-2.9 47.5 47.5 0 0 0-59.2 19.4"></path></g></svg> 